<?xml version="1.0" standalone="no"?>
<!DOCTYPE svg PUBLIC "-//W3C//DTD SVG 20010904//EN"
 "http://www.w3.org/TR/2001/REC-SVG-20010904/DTD/svg10.dtd">
<svg version="1.0" xmlns="http://www.w3.org/2000/svg"
 width="512.000000pt" height="512.000000pt" viewBox="0 0 512.000000 512.000000"
 preserveAspectRatio="xMidYMid meet">

<g transform="translate(0.000000,512.000000) scale(0.100000,-0.100000)"
fill="#000000" stroke="none">
<path d="M2378 5110 c-1033 -75 -1922 -770 -2248 -1760 -140 -423 -162 -907
-64 -1350 117 -524 413 -1018 819 -1367 301 -260 646 -444 1015 -542 1101
-293 2255 174 2851 1154 67 110 164 312 207 431 404 1105 10 2333 -963 2996
-472 322 -1050 479 -1617 438z m261 -390 c148 -75 302 -418 387 -865 9 -49 20
-94 24 -98 5 -5 48 18 98 52 195 131 425 252 572 301 157 53 307 37 371 -40
19 -22 53 -62 76 -88 23 -26 47 -60 52 -76 34 -88 -14 -198 -101 -229 -9 -3
-39 -52 -66 -109 -59 -125 -108 -211 -219 -386 -47 -73 -84 -134 -82 -136 2
-1 65 -15 139 -29 74 -14 191 -42 260 -62 535 -154 723 -368 500 -568 -128
-115 -412 -225 -755 -293 -77 -15 -142 -29 -144 -30 -2 -2 32 -59 76 -126 180
-278 259 -438 309 -627 51 -197 15 -310 -114 -347 -160 -47 -488 80 -876 339
-48 32 -92 55 -96 50 -4 -4 -15 -49 -25 -100 -15 -79 -20 -91 -34 -84 -9 5
-33 11 -54 15 -30 6 -37 11 -33 24 9 29 55 227 53 228 -13 6 -205 158 -282
222 -55 46 -105 86 -112 89 -6 3 -63 -38 -125 -89 -62 -52 -151 -123 -196
-158 l-84 -64 7 -44 c13 -89 76 -324 111 -420 109 -295 240 -408 365 -316 37
27 90 98 126 169 14 28 27 51 28 53 2 2 18 -6 36 -17 19 -12 45 -21 58 -21 20
0 22 -3 16 -27 -3 -16 -23 -66 -43 -113 -118 -277 -246 -378 -389 -309 -147
71 -307 434 -389 880 l-17 96 -111 -72 c-339 -222 -604 -337 -781 -339 -67 -1
-87 3 -123 24 -137 78 -128 274 28 598 64 132 129 245 222 384 32 48 58 91 58
96 0 5 -32 14 -71 21 -70 13 -71 13 -97 -12 -102 -98 -251 -61 -299 73 -15 42
-22 49 -57 60 -208 61 -394 178 -446 279 -63 124 18 240 245 351 165 82 372
146 625 195 47 9 90 18 97 20 8 3 -12 40 -51 97 -138 205 -261 438 -311 593
-110 339 20 487 346 395 l37 -10 -19 -37 c-11 -21 -19 -57 -19 -80 l0 -43 -43
0 c-55 0 -106 -28 -129 -71 -25 -45 -20 -176 11 -269 33 -97 131 -291 210
-415 39 -60 75 -117 80 -124 8 -13 24 -13 112 -3 57 7 171 20 254 28 82 8 151
17 153 19 2 2 10 71 18 155 8 83 21 195 28 248 10 73 11 100 2 108 -20 21
-202 132 -300 185 l-96 51 20 33 c11 18 20 40 20 49 0 9 6 16 13 16 14 0 213
-120 315 -188 l59 -40 17 96 c63 345 188 681 300 808 79 89 172 117 255 74z"/>
<path d="M2493 4469 c-107 -53 -212 -261 -287 -567 -19 -77 -37 -159 -41 -184
l-7 -44 84 -64 c45 -35 134 -106 196 -158 62 -51 119 -92 125 -89 7 3 57 43
112 89 77 64 269 216 282 222 1 1 -9 51 -22 111 -81 381 -197 631 -319 686
-53 24 -72 24 -123 -2z"/>
<path d="M3640 3938 c-156 -45 -570 -280 -570 -324 0 -11 6 -67 14 -125 8 -57
20 -162 26 -234 7 -71 13 -131 14 -132 1 -1 74 -9 161 -18 88 -8 189 -20 225
-25 124 -18 120 -20 182 73 116 175 222 384 249 492 10 41 9 46 -19 82 -44 55
-58 117 -38 173 8 24 13 46 11 48 -2 3 -44 6 -92 8 -68 3 -105 -1 -163 -18z"/>
<path d="M2910 3518 c-101 -77 -280 -222 -279 -228 2 -13 159 -145 180 -151
13 -4 68 -7 121 -8 l98 -1 -5 28 c-3 15 -9 77 -15 137 -6 61 -16 146 -23 191
l-12 81 -65 -49z"/>
<path d="M2136 3548 c-5 -16 -34 -249 -42 -347 l-7 -74 116 5 115 4 79 73 c43
40 79 77 81 81 3 7 -138 124 -253 211 -79 60 -84 63 -89 47z"/>
<path d="M2505 3184 l-50 -44 99 0 99 0 -24 26 c-13 14 -35 34 -49 44 -25 18
-25 18 -75 -26z"/>
<path d="M2364 3043 c-11 -2 -82 -66 -158 -142 l-138 -139 0 -207 0 -208 141
-141 141 -141 205 0 205 0 145 145 145 145 0 200 0 200 -145 145 -145 145
-188 1 c-103 1 -196 0 -208 -3z m289 -233 c188 -71 237 -312 91 -453 -44 -42
-126 -77 -183 -77 -102 0 -204 63 -251 156 -33 67 -35 189 -3 249 66 126 208
176 346 125z"/>
<path d="M2109 3033 c-24 -4 -27 -9 -33 -65 -3 -34 -5 -63 -3 -64 2 -2 34 28
72 66 l69 70 -39 -1 c-22 -1 -52 -4 -66 -6z"/>
<path d="M2965 2971 c38 -39 71 -71 72 -71 7 0 2 106 -5 117 -5 7 -37 16 -73
19 l-64 6 70 -71z"/>
<path d="M1865 3014 c-11 -1 -85 -10 -165 -20 -80 -9 -147 -18 -149 -20 -7 -6
250 -335 267 -341 4 -2 41 34 82 79 l75 82 5 113 5 113 -50 -1 c-27 -1 -59 -3
-70 -5z"/>
<path d="M3130 2968 c0 -30 3 -83 6 -117 7 -60 9 -63 83 -143 l76 -81 96 119
c115 143 169 214 169 224 0 7 -216 36 -347 46 l-83 7 0 -55z"/>
<path d="M1290 2925 c-375 -85 -625 -210 -658 -329 -24 -87 48 -179 198 -253
l85 -41 25 23 c51 48 126 58 195 26 51 -23 71 -47 94 -107 l19 -48 86 -19 c48
-10 93 -17 100 -14 7 3 56 61 109 129 53 67 123 155 155 193 l59 70 -111 135
c-61 75 -133 165 -161 202 l-50 65 -145 -32z"/>
<path d="M3614 2873 c-33 -43 -103 -131 -156 -195 -54 -65 -98 -120 -98 -123
0 -3 44 -58 98 -123 53 -64 123 -152 156 -195 39 -50 66 -77 79 -77 39 0 254
53 375 91 301 98 444 215 417 340 -19 86 -200 201 -430 273 -114 35 -327 86
-362 86 -13 0 -40 -27 -79 -77z"/>
<path d="M1924 2602 l-41 -47 43 -50 44 -49 0 97 c0 53 -1 97 -2 97 -2 0 -21
-21 -44 -48z"/>
<path d="M3140 2554 l1 -99 44 49 44 49 -19 26 c-10 14 -30 37 -44 50 l-26 24
0 -99z"/>
<path d="M1709 2347 c-129 -161 -163 -207 -158 -211 6 -5 252 -35 349 -42 l85
-7 -5 115 -5 114 -75 82 c-41 45 -77 82 -80 82 -3 0 -53 -60 -111 -133z"/>
<path d="M3215 2400 c-77 -85 -82 -101 -84 -244 l-1 -69 83 7 c134 10 347 39
347 47 0 16 -257 340 -269 338 -3 0 -37 -36 -76 -79z"/>
<path d="M2074 2175 c3 -22 6 -52 6 -67 0 -25 4 -26 61 -33 33 -4 62 -5 64 -3
3 2 -27 35 -67 74 l-70 69 6 -40z"/>
<path d="M2965 2139 l-70 -71 64 6 c36 3 68 12 73 19 7 11 12 117 5 117 -1 0
-34 -32 -72 -71z"/>
<path d="M1422 1956 c-126 -197 -198 -334 -242 -466 -32 -93 -38 -224 -12
-269 44 -80 158 -95 323 -41 111 37 320 143 460 235 86 56 99 68 94 87 -8 38
-24 175 -39 331 -8 82 -16 150 -18 152 -2 2 -76 11 -163 20 -88 9 -202 22
-253 29 l-92 12 -58 -90z"/>
<path d="M3500 2029 c-30 -5 -127 -15 -215 -24 -87 -9 -160 -17 -161 -18 -1
-1 -7 -60 -14 -132 -6 -71 -18 -177 -26 -234 -8 -58 -14 -114 -14 -125 0 -15
24 -36 88 -77 283 -182 459 -258 617 -266 78 -4 94 -1 122 16 49 31 67 74 65
156 -3 148 -89 351 -264 623 l-60 92 -42 -1 c-22 -1 -66 -5 -96 -10z"/>
<path d="M2094 1909 c12 -139 39 -344 46 -352 3 -4 29 9 56 29 93 70 284 226
284 233 0 3 -37 40 -82 81 l-82 75 -114 4 -115 3 7 -73z"/>
<path d="M2805 1971 c-23 -9 -174 -143 -172 -152 2 -9 160 -138 263 -216 l81
-61 16 131 c9 73 19 161 22 197 4 36 8 75 11 88 4 22 3 22 -98 21 -57 0 -112
-4 -123 -8z"/>
<path d="M2505 1926 c50 -43 50 -44 75 -26 14 10 36 30 49 44 l24 26 -98 0
-99 0 49 -44z"/>
</g>
</svg>
